<svg width="20.000000" height="20.000000" viewBox="0 0 20 20" fill="none" xmlns="http://www.w3.org/2000/svg" xmlns:xlink="http://www.w3.org/1999/xlink">
	<desc>
			Created with Pixso.
	</desc>
	<defs/>
	<path id="" d="M13.93 7.51C13.93 7.43 13.89 7.35 13.84 7.3L13.39 6.85C13.34 6.8 13.26 6.76 13.19 6.76C13.12 6.76 13.04 6.8 12.98 6.85L9.47 10.36L5.96 6.85C5.91 6.8 5.83 6.76 5.76 6.76C5.68 6.76 5.61 6.8 5.55 6.85L5.11 7.3C5.05 7.35 5.02 7.43 5.02 7.51C5.02 7.58 5.05 7.66 5.11 7.71L9.27 11.87C9.32 11.93 9.4 11.96 9.47 11.96C9.54 11.96 9.63 11.93 9.68 11.87L13.84 7.71C13.89 7.66 13.93 7.58 13.93 7.51Z" fill="#000000" fill-opacity="1.000000" fill-rule="nonzero"/>
</svg>
