<svg width="244.000000" height="21.000000" viewBox="0 0 244 21" fill="none" xmlns="http://www.w3.org/2000/svg" xmlns:xlink="http://www.w3.org/1999/xlink">
	<desc>
			Created with Pixso.
	</desc>
	<defs/>
	<path id="LoremIpsum.Net" d="M195.05 19.88L195.05 8.51L204.21 19.88L207.91 19.88L207.91 0L203.31 0L203.31 11.68L194.05 0L190.46 0L190.46 19.88L195.05 19.88ZM225.68 19.88L225.68 15.85L216.3 15.85L216.3 11.62L224.14 11.62L224.14 7.9L216.3 7.9L216.3 4.03L225.43 4.03L225.43 0L211.71 0L211.71 19.88L225.68 19.88ZM237.57 4.03L243.62 4.03L243.62 0L226.9 0L226.9 4.03L232.98 4.03L232.98 19.88L237.57 19.88L237.57 4.03Z" fill="#42A9ED" fill-opacity="1.000000" fill-rule="evenodd"/>
	<path id="LoremIpsum.Net" d="M132.87 5.4C133.2 5.61 133.4 5.75 133.46 5.82L135.47 2.02C135.02 1.75 134.53 1.49 133.99 1.23C133.47 0.97 132.9 0.74 132.28 0.53C131.66 0.33 131.02 0.16 130.35 0.03C129.68 -0.1 129 -0.17 128.3 -0.17C127.32 -0.17 126.37 -0.03 125.48 0.25C124.6 0.53 123.82 0.95 123.15 1.51C122.48 2.05 121.95 2.72 121.56 3.53C121.16 4.33 120.97 5.25 120.97 6.3C120.97 7.05 121.07 7.7 121.28 8.26Q121.43 8.64 121.65 8.99Q121.91 9.39 122.26 9.74C122.7 10.17 123.26 10.56 123.94 10.89C124.61 11.21 125.4 11.51 126.32 11.79C127.01 11.99 127.64 12.18 128.22 12.35C128.82 12.52 129.33 12.7 129.76 12.91Q130.4 13.19 130.77 13.55C131.01 13.79 131.13 14.1 131.13 14.48Q131.13 14.88 130.95 15.17Q130.47 15.96 128.7 15.96C127.93 15.96 127.18 15.86 126.43 15.65C125.68 15.45 125 15.21 124.38 14.95C123.79 14.69 123.28 14.43 122.87 14.17C122.46 13.91 122.22 13.73 122.14 13.64L120.13 17.64C120.71 18.03 121.33 18.38 122 18.68Q123.04 19.12 124.13 19.46Q125.22 19.77 126.37 19.94C127.14 20.05 127.88 20.1 128.61 20.1Q130.04 20.1 131.38 19.79C132.28 19.57 133.07 19.23 133.76 18.76C134.46 18.27 135.01 17.65 135.42 16.88C135.85 16.1 136.06 15.15 136.06 14.03C136.06 13.11 135.91 12.33 135.61 11.68C135.33 11.02 134.92 10.47 134.38 10.02C133.86 9.56 133.21 9.17 132.45 8.88C131.68 8.56 130.82 8.27 129.87 8.01C129.18 7.82 128.58 7.65 128.05 7.5C127.53 7.35 127.09 7.2 126.74 7.03C126.4 6.84 126.14 6.64 125.95 6.41C125.78 6.19 125.7 5.91 125.7 5.57C125.7 4.47 126.52 3.92 128.16 3.92L128.17 3.92Q129.06 3.92 129.96 4.17C130.55 4.34 131.1 4.54 131.61 4.76C132.11 4.98 132.53 5.2 132.87 5.4ZM19.64 19.25Q21.4 20.05 23.51 20.05C24.95 20.05 26.28 19.77 27.49 19.21C28.7 18.65 29.75 17.91 30.63 17C31.5 16.06 32.18 14.99 32.67 13.78C33.17 12.56 33.43 11.3 33.43 10C33.43 8.74 33.19 7.51 32.73 6.3Q32.3 5.2 31.66 4.24Q31.25 3.62 30.74 3.05C29.88 2.1 28.84 1.33 27.63 0.76Q27.55 0.72 27.47 0.68Q25.71 -0.11 23.6 -0.11C22.16 -0.11 20.84 0.17 19.62 0.73Q18.39 1.28 17.37 2.1Q16.89 2.49 16.46 2.94C15.58 3.85 14.89 4.92 14.39 6.13Q14.02 7.04 13.84 7.99Q13.66 8.93 13.66 9.91Q13.66 10.74 13.79 11.55Q13.96 12.63 14.36 13.66C14.84 14.88 15.52 15.96 16.37 16.91C17.23 17.84 18.27 18.6 19.48 19.18Q19.56 19.22 19.64 19.25ZM-0.32 0L-0.32 19.88L13.91 19.88L13.91 15.85L4.28 15.85L4.28 0L-0.32 0ZM36.08 0L36.08 19.88L40.67 19.88L40.67 13.47L43.67 13.47L47.48 19.88L52.66 19.88L48.29 12.49C48.79 12.21 49.24 11.87 49.63 11.48C50.04 11.07 50.39 10.61 50.67 10.11C50.95 9.6 51.16 9.07 51.31 8.51C51.46 7.93 51.54 7.34 51.54 6.72Q51.54 6.55 51.53 6.39Q51.47 5.32 51.03 4.28C50.71 3.48 50.27 2.76 49.69 2.13C49.11 1.49 48.42 0.98 47.62 0.59C46.83 0.2 45.97 0 45.04 0L36.08 0ZM68.81 19.88L68.81 15.85L59.43 15.85L59.43 11.62L67.27 11.62L67.27 7.9L59.43 7.9L59.43 4.03L68.56 4.03L68.56 0L54.84 0L54.84 19.88L68.81 19.88ZM87.28 7.98L87.28 19.88L91.87 19.88L91.87 0L86.91 0L81.73 10.39L76.58 0L71.6 0L71.6 19.88L76.19 19.88L76.19 7.98L80.5 16.63L82.97 16.63L87.28 7.98ZM95.69 0L95.69 19.88L100.28 19.88L100.28 0L95.69 0ZM104.08 0L104.08 19.88L108.68 19.88L108.68 13.47L112.71 13.47C113.66 13.47 114.53 13.28 115.31 12.91C116.1 12.53 116.76 12.03 117.3 11.4C117.86 10.76 118.29 10.04 118.59 9.24C118.9 8.44 119.06 7.6 119.06 6.72Q119.06 6.55 119.05 6.39Q119 5.32 118.56 4.28C118.24 3.48 117.79 2.76 117.22 2.13C116.66 1.49 115.97 0.98 115.17 0.59C114.39 0.2 113.52 0 112.57 0L104.08 0ZM149.28 15.48C148.74 15.8 148.08 15.96 147.3 15.96C146.51 15.96 145.85 15.8 145.31 15.48C144.78 15.17 144.36 14.74 144.02 14.2C143.68 13.65 143.44 13.04 143.29 12.35C143.14 11.66 143.07 10.93 143.07 10.16L143.07 0L138.48 0L138.48 10.16C138.48 11.47 138.63 12.72 138.95 13.92C139.29 15.11 139.8 16.16 140.49 17.08C141.2 17.98 142.12 18.69 143.24 19.24Q144.92 20.05 147.3 20.05C148.83 20.05 150.14 19.79 151.24 19.29C152.36 18.77 153.28 18.06 153.99 17.16Q154.07 17.06 154.14 16.96Q155.12 15.69 155.58 14.03Q156.12 12.24 156.12 10.16L156.12 0L151.52 0L151.52 10.16C151.52 10.89 151.45 11.61 151.3 12.32C151.17 13.01 150.94 13.63 150.6 14.17C150.26 14.71 149.82 15.15 149.28 15.48ZM175.35 7.98L175.35 19.88L179.95 19.88L179.95 0L174.99 0L169.81 10.39L164.66 0L159.67 0L159.67 19.88L164.27 19.88L164.27 7.98L168.58 16.63L171.04 16.63L175.35 7.98ZM18.67 12.21C18.45 11.48 18.33 10.73 18.33 9.97C18.33 9.22 18.44 8.49 18.64 7.78C18.87 7.06 19.19 6.41 19.62 5.85C20.07 5.29 20.61 4.84 21.25 4.51C21.9 4.15 22.66 3.98 23.54 3.98C24.38 3.98 25.12 4.14 25.75 4.48C26.41 4.8 26.96 5.24 27.41 5.8Q28.08 6.61 28.41 7.7C28.64 8.41 28.75 9.15 28.75 9.91C28.75 10.66 28.64 11.4 28.41 12.12Q28.2 12.86 27.82 13.51Q27.66 13.79 27.46 14.06C27.03 14.62 26.49 15.07 25.84 15.43C25.18 15.78 24.42 15.96 23.54 15.96C22.7 15.96 21.96 15.79 21.3 15.46C20.65 15.12 20.1 14.67 19.65 14.11C19.22 13.55 18.89 12.92 18.67 12.21ZM44.87 9.46L40.67 9.46L40.67 4.03L44.73 4.03C45.25 4.03 45.74 4.27 46.19 4.76Q46.27 4.85 46.34 4.94Q46.86 5.63 46.86 6.72Q46.86 7.89 46.31 8.66Q46.29 8.68 46.27 8.71C45.88 9.21 45.41 9.46 44.87 9.46ZM112.43 9.46L108.68 9.46L108.68 4.03L112.26 4.03C112.52 4.03 112.78 4.09 113.04 4.2C113.3 4.29 113.54 4.45 113.74 4.67C113.95 4.9 114.11 5.18 114.22 5.52C114.35 5.85 114.42 6.25 114.42 6.72Q114.42 8.06 113.83 8.76C113.44 9.23 112.97 9.46 112.43 9.46ZM183.37 15.32L183.37 19.88L187.04 19.88L187.04 15.32L183.37 15.32Z" fill="#FFFFFF" fill-opacity="1.000000" fill-rule="evenodd"/>
</svg>
