<svg width="20.000000" height="20.000000" viewBox="0 0 20 20" fill="none" xmlns="http://www.w3.org/2000/svg" xmlns:xlink="http://www.w3.org/1999/xlink">
	<desc>
			Created with Pixso.
	</desc>
	<defs>
		<clipPath id="clip4_221">
			<rect id="Frame 21" width="20.000000" height="20.000000" transform="translate(-0.678223 0.000000)" fill="white" fill-opacity="0"/>
		</clipPath>
	</defs>
	<g clip-path="url(#clip4_221)">
		<path id="" d="M15.75 14.84C15.75 14.99 15.62 15.11 15.48 15.11L3.16 15.11C3.01 15.11 2.89 14.99 2.89 14.84L2.89 8.42C3.06 8.62 3.26 8.8 3.47 8.97C4.66 9.89 5.87 10.83 7.03 11.8C7.66 12.32 8.44 12.97 9.31 12.97L9.32 12.97L9.33 12.97C10.2 12.97 10.97 12.32 11.6 11.8C12.77 10.83 13.97 9.89 15.17 8.97C15.38 8.8 15.57 8.62 15.75 8.42L15.75 14.84ZM15.75 6.05C15.75 6.76 15.06 7.69 14.51 8.11C13.39 8.99 12.27 9.88 11.16 10.77C10.71 11.13 9.91 11.9 9.33 11.9L9.32 11.9L9.31 11.9C8.72 11.9 7.92 11.13 7.48 10.77C6.36 9.88 5.24 8.99 4.12 8.11C3.37 7.52 2.89 6.69 2.89 5.74C2.89 5.59 3.01 5.47 3.16 5.47L15.48 5.47C15.8 5.47 15.75 5.84 15.75 6.05ZM16.82 5.74C16.82 5 16.21 4.4 15.48 4.4L3.16 4.4C2.42 4.4 1.82 5 1.82 5.74L1.82 14.84C1.82 15.58 2.42 16.18 3.16 16.18L15.48 16.18C16.21 16.18 16.82 15.58 16.82 14.84L16.82 5.74Z" fill="#3E9CDC" fill-opacity="1.000000" fill-rule="nonzero"/>
	</g>
</svg>
