<svg width="20.000000" height="20.000000" viewBox="0 0 20 20" fill="none" xmlns="http://www.w3.org/2000/svg" xmlns:xlink="http://www.w3.org/1999/xlink">
	<desc>
			Created with Pixso.
	</desc>
	<defs>
		<clipPath id="clip4_205">
			<rect id="Frame 21" width="20.000000" height="20.000000" transform="translate(-0.665405 0.000000)" fill="white" fill-opacity="0"/>
		</clipPath>
	</defs>
	<g clip-path="url(#clip4_205)">
		<path id="В" d="M14.18 12.28C14.18 12.93 14.05 13.5 13.81 14C13.56 14.49 13.23 14.89 12.81 15.22C12.32 15.6 11.78 15.88 11.19 16.04C10.6 16.21 9.85 16.29 8.95 16.29L3.71 16.29L3.71 3.2L8.33 3.2C9.29 3.2 10.02 3.24 10.51 3.32C11.01 3.39 11.47 3.54 11.91 3.77C12.38 4.03 12.73 4.36 12.95 4.78C13.19 5.21 13.31 5.69 13.31 6.24C13.31 6.88 13.14 7.45 12.82 7.95C12.51 8.45 12.07 8.81 11.5 9.05L11.5 9.12C12.31 9.29 12.96 9.64 13.45 10.16C13.93 10.68 14.18 11.39 14.18 12.28ZM9.97 6.9C9.97 6.69 9.91 6.47 9.8 6.25C9.69 6.03 9.53 5.87 9.3 5.77C9.08 5.67 8.82 5.63 8.52 5.62C8.23 5.61 7.79 5.6 7.21 5.6L6.98 5.6L6.98 8.37L7.39 8.37C7.95 8.37 8.35 8.36 8.57 8.35C8.8 8.34 9.03 8.28 9.27 8.17C9.53 8.04 9.72 7.88 9.82 7.66C9.92 7.44 9.97 7.19 9.97 6.9ZM10.79 12.22C10.79 11.82 10.71 11.5 10.55 11.27C10.38 11.04 10.14 10.87 9.81 10.75C9.61 10.68 9.33 10.63 8.98 10.63C8.64 10.62 8.17 10.61 7.58 10.61L6.98 10.61L6.98 13.89L7.15 13.89C8.01 13.89 8.6 13.88 8.93 13.87C9.26 13.86 9.59 13.78 9.93 13.63C10.23 13.51 10.45 13.32 10.58 13.07C10.72 12.82 10.79 12.54 10.79 12.22Z" fill="#3E9CDC" fill-opacity="1.000000" fill-rule="nonzero"/>
	</g>
</svg>
