<svg width="20.000000" height="20.000000" viewBox="0 0 20 20" fill="none" xmlns="http://www.w3.org/2000/svg" xmlns:xlink="http://www.w3.org/1999/xlink">
	<desc>
			Created with Pixso.
	</desc>
	<defs>
		<clipPath id="clip4_179">
			<rect id="Frame 20" width="20.000000" height="20.000000" transform="translate(-0.500061 0.000000)" fill="white" fill-opacity="0"/>
		</clipPath>
	</defs>
	<g clip-path="url(#clip4_179)">
		<path id="Vector" d="M2.77 9.93C2.77 8.94 2.86 8.32 4.91 6.8C6.61 5.54 12.07 1.23 12.07 1.23L12.07 8.42L16.22 8.42L16.22 18.76L4.07 18.76C3.36 18.76 2.77 18.18 2.77 17.47L2.77 9.93L2.77 9.93Z" fill="#3E9CDC" fill-opacity="1.000000" fill-rule="evenodd"/>
		<path id="Vector" d="M12.07 8.42L12.07 12.58L4.45 17.73L14.08 14.62L14.08 8.42L12.07 8.42Z" fill="#000000" fill-opacity="0.200000" fill-rule="evenodd"/>
		<path id="Vector" d="M8.59 8.2C9.03 7.68 9.68 7.49 10.04 7.79C10.4 8.08 10.33 8.75 9.88 9.28C9.43 9.81 8.78 9.99 8.43 9.69C8.07 9.4 8.14 8.73 8.59 8.2L8.59 8.2Z" fill="#231F20" fill-opacity="1.000000" fill-rule="evenodd"/>
	</g>
</svg>
